<mxfile host="app.diagrams.net" modified="2023-09-29T02:01:43.041Z" agent="Mozilla/5.0 (Windows NT 10.0; Win64; x64) AppleWebKit/537.36 (KHTML, like Gecko) Chrome/117.0.0.0 Safari/537.36" version="21.8.2" etag="7I0tceebT9kpH3Zmni7C" type="github">
  <diagram name="Trang-1" id="IqzSkuO8_a1qG6N4Xbm_">
    <mxGraphModel>
      <root>
        <mxCell id="0" />
        <mxCell id="1" parent="0" />
      </root>
    </mxGraphModel>
  </diagram>
</mxfile>
